# xmcd
#
# Track frame offsets: 
#        183
#        10258
#        20948
#        30890
#        42105
#        52615
#        63235
#        74938
#        85478
#        95698
#        108805
#        120873
#        130905
#        136273
#        146578
#        160235
#        176018
#        189270
#        201603
#        212803
#        222765
#        233023
#        243033
#        254995
#        275393
#
# Disc length: 3835 seconds
#
# Revision: 2
# Processed by: cddbd v1.5.2PL0 Copyright (c) Steve Scherf et al.
# Submitted via: ExactAudioCopy v0.99pb3
#
DISCID=680ef919
DTITLE=The Everly Brothers - Sing Great Country Hits- Roots
DYEAR=1991
DGENRE=Country
TTITLE0=Oh, Lonesome Me
TTITLE1=Born to Lose
TTITLE2=Just One Time
TTITLE3=Send Me the Pillow You Dream On
TTITLE4=Release Me
TTITLE5=Plese Help Me, I'm Falling
TTITLE6=I Walk the Line
TTITLE7=Lonely Street
TTITLE8=Silver Threads and Golden Needles
TTITLE9=I'm So Lonesome I Could Cry
TTITLE10=Sweet Dreams
TTITLE11=This is the Last Song I'm Ever Going to Sing
TTITLE12=Introduction- the Everly Family
TTITLE13=Mama Tried
TTITLE14=Less of Me
TTITLE15=T for Texas
TTITLE16=I Wonder if I Care as Much
TTITLE17=Ventura Boulevard
TTITLE18=Shady Grove
TTITLE19=Illinois
TTITLE20=Living Too Close to the Ground
TTITLE21=You Done Me Wrong
TTITLE22=Turn Around
TTITLE23=Sing Me Back Home
TTITLE24=Montage- Everly Family 1952
EXTD=
EXTT0=
EXTT1=
EXTT2=
EXTT3=
EXTT4=
EXTT5=
EXTT6=
EXTT7=
EXTT8=
EXTT9=
EXTT10=
EXTT11=
EXTT12=
EXTT13=
EXTT14=
EXTT15=
EXTT16=
EXTT17=
EXTT18=
EXTT19=
EXTT20=
EXTT21=
EXTT22=
EXTT23=
EXTT24=
PLAYORDER=
